# xmcd
#
# Track frame offsets:
# 150
# 11337
# 26823
# 42531
#
# Disc length: 786 seconds
#
# Revision: 1
# Processed by: cddbd v1.5.2PL0 Copyright (c) Steve Scherf et al.
# Submitted via: CedeCatalogueitor 2.6.0.6 http://personales.ya.com/cdcatalogueitor
#
DISCID=2a031004
DTITLE=Expatriate - Shooting Star
DYEAR=1900
DGENRE=
TTITLE0=Shooting Star
TTITLE1=Shooting Star
TTITLE2=The Spaces Between
TTITLE3=Missing
EXTD=
EXTT0=
EXTT1=
EXTT2=
EXTT3=
PLAYORDER=
